<mxfile host="app.diagrams.net" modified="2021-06-15T04:59:24.022Z" agent="5.0 (Macintosh; Intel Mac OS X 10_15_7) AppleWebKit/537.36 (KHTML, like Gecko) Chrome/91.0.4472.77 Safari/537.36" etag="Zxn0QjC-pRcs3dU61HUy" version="14.7.7" type="github">
  <diagram name="Page-1" id="f1b7ffb7-ca1e-a977-7cf5-a751b3c06c05">
    <mxGraphModel dx="1426" dy="768" grid="1" gridSize="10" guides="1" tooltips="1" connect="1" arrows="1" fold="1" page="1" pageScale="1" pageWidth="826" pageHeight="1169" background="none" math="0" shadow="0">
      <root>
        <mxCell id="0" />
        <mxCell id="1" parent="0" />
        <mxCell id="2" value="WEATHER REPORT h1 tag&#xa;" style="text;spacingTop=-5;fontSize=18;fontStyle=0" parent="1" vertex="1">
          <mxGeometry x="70" y="30" width="230" height="20" as="geometry" />
        </mxCell>
        <mxCell id="20" value="" style="verticalLabelPosition=bottom;verticalAlign=top;strokeWidth=1;shape=mxgraph.mockup.graphics.iconGrid;strokeColor=#CCCCCC;gridSize=1,1;" parent="1" vertex="1">
          <mxGeometry x="20" y="15" width="40" height="40" as="geometry" />
        </mxCell>
        <mxCell id="21" value="Blog &#xa;Logo" style="text;spacingTop=-5;align=center" parent="1" vertex="1">
          <mxGeometry x="20" y="20" width="40" height="40" as="geometry" />
        </mxCell>
        <mxCell id="XTrONsWVgmrav_g4gLT--61" value="for the state that needs a new governor, Texas" style="text;html=1;strokeColor=none;fillColor=none;align=center;verticalAlign=middle;whiteSpace=wrap;rounded=0;" vertex="1" parent="1">
          <mxGeometry x="160" y="55" width="320" height="35" as="geometry" />
        </mxCell>
        <mxCell id="XTrONsWVgmrav_g4gLT--64" value="" style="shape=mxgraph.mockup.containers.marginRect;rectMarginTop=10;strokeColor=#666666;strokeWidth=1;dashed=0;rounded=1;arcSize=5;recursiveResize=0;" vertex="1" parent="1">
          <mxGeometry x="10" y="430" width="450" height="240" as="geometry" />
        </mxCell>
        <mxCell id="XTrONsWVgmrav_g4gLT--65" value="container for sky" style="shape=rect;strokeColor=none;fillColor=#008cff;strokeWidth=1;dashed=0;rounded=1;arcSize=20;fontColor=#ffffff;fontSize=17;spacing=2;spacingTop=-2;align=left;autosize=1;spacingLeft=4;resizeWidth=0;resizeHeight=0;perimeter=none;" vertex="1" parent="XTrONsWVgmrav_g4gLT--64">
          <mxGeometry x="5" width="150" height="30" as="geometry" />
        </mxCell>
        <mxCell id="XTrONsWVgmrav_g4gLT--66" value="SKY h1 header?" style="text;html=1;strokeColor=none;fillColor=none;align=center;verticalAlign=middle;whiteSpace=wrap;rounded=0;" vertex="1" parent="XTrONsWVgmrav_g4gLT--64">
          <mxGeometry x="115" y="50" width="235" height="50" as="geometry" />
        </mxCell>
        <mxCell id="XTrONsWVgmrav_g4gLT--67" value="Sunny" style="strokeWidth=1;shadow=0;dashed=0;align=center;html=1;shape=mxgraph.mockup.forms.comboBox;strokeColor=#999999;fillColor=#ddeeff;align=left;fillColor2=#aaddff;mainText=;fontColor=#666666;fontSize=17;spacingLeft=3;" vertex="1" parent="XTrONsWVgmrav_g4gLT--64">
          <mxGeometry x="80" y="130" width="150" height="30" as="geometry" />
        </mxCell>
        <mxCell id="XTrONsWVgmrav_g4gLT--83" value="&lt;meta charset=&quot;utf-8&quot;&gt;&lt;p style=&quot;box-sizing: border-box; margin: 0px 0px 24px; max-width: 85ch; color: rgb(33, 33, 33); font-size: 16px; font-style: normal; font-weight: 400; letter-spacing: -0.0444444px; text-indent: 0px; text-transform: none; word-spacing: 0px; background-color: rgb(255, 255, 255);&quot;&gt;The&lt;span&gt;&amp;nbsp;&lt;/span&gt;&lt;strong style=&quot;box-sizing: border-box&quot;&gt;&lt;code style=&quot;box-sizing: border-box ; background-color: rgb(238 , 238 , 238) ; font-family: &amp;quot;consolas&amp;quot; , &amp;quot;liberation mono&amp;quot; , &amp;quot;courier&amp;quot; , monospace ; padding: 0px 3px ; overflow-wrap: break-word&quot;&gt;&amp;lt;select&amp;gt;&lt;/code&gt;&lt;/strong&gt;&lt;span&gt;&amp;nbsp;&lt;/span&gt;&lt;a href=&quot;https://developer.mozilla.org/en-US/docs/Web/HTML&quot; style=&quot;box-sizing: border-box ; color: rgb(0 , 69 , 139) ; text-decoration: underline&quot;&gt;HTML&lt;/a&gt;&lt;span&gt;&amp;nbsp;&lt;/span&gt;element represents a control that provides a menu of options:&lt;/p&gt;&lt;br class=&quot;Apple-interchange-newline&quot;&gt;" style="text;html=1;strokeColor=none;fillColor=none;align=center;verticalAlign=middle;whiteSpace=wrap;rounded=0;" vertex="1" parent="XTrONsWVgmrav_g4gLT--64">
          <mxGeometry x="240" y="140" width="210" height="80" as="geometry" />
        </mxCell>
        <mxCell id="XTrONsWVgmrav_g4gLT--68" value="" style="shape=mxgraph.mockup.containers.marginRect;rectMarginTop=10;strokeColor=#666666;strokeWidth=1;dashed=0;rounded=1;arcSize=5;recursiveResize=0;" vertex="1" parent="1">
          <mxGeometry y="720" width="460" height="240" as="geometry" />
        </mxCell>
        <mxCell id="XTrONsWVgmrav_g4gLT--69" value="container for city name" style="shape=rect;strokeColor=none;fillColor=#008cff;strokeWidth=1;dashed=0;rounded=1;arcSize=20;fontColor=#ffffff;fontSize=17;spacing=2;spacingTop=-2;align=left;autosize=1;spacingLeft=4;resizeWidth=0;resizeHeight=0;perimeter=none;" vertex="1" parent="XTrONsWVgmrav_g4gLT--68">
          <mxGeometry x="5" width="200" height="30" as="geometry" />
        </mxCell>
        <mxCell id="XTrONsWVgmrav_g4gLT--70" value="CITY NAME h1" style="text;html=1;strokeColor=none;fillColor=none;align=center;verticalAlign=middle;whiteSpace=wrap;rounded=0;" vertex="1" parent="XTrONsWVgmrav_g4gLT--68">
          <mxGeometry x="100" y="60" width="250" height="50" as="geometry" />
        </mxCell>
        <mxCell id="XTrONsWVgmrav_g4gLT--71" value="Search" style="strokeWidth=1;shadow=0;dashed=0;align=center;html=1;shape=mxgraph.mockup.forms.searchBox;strokeColor=#999999;mainText=;strokeColor2=#008cff;fontColor=#666666;fontSize=17;align=left;spacingLeft=3;" vertex="1" parent="XTrONsWVgmrav_g4gLT--68">
          <mxGeometry x="40" y="120" width="150" height="30" as="geometry" />
        </mxCell>
        <mxCell id="XTrONsWVgmrav_g4gLT--72" value="RESET" style="strokeWidth=1;shadow=0;dashed=0;align=center;html=1;shape=mxgraph.mockup.buttons.button;strokeColor=#666666;fontColor=#ffffff;mainText=;buttonStyle=round;fontSize=17;fontStyle=1;fillColor=#008cff;whiteSpace=wrap;" vertex="1" parent="XTrONsWVgmrav_g4gLT--68">
          <mxGeometry x="258" y="120" width="150" height="50" as="geometry" />
        </mxCell>
        <mxCell id="XTrONsWVgmrav_g4gLT--73" value="" style="shape=mxgraph.mockup.containers.marginRect;rectMarginTop=10;strokeColor=#666666;strokeWidth=1;dashed=0;rounded=1;arcSize=5;recursiveResize=0;" vertex="1" parent="1">
          <mxGeometry x="20" y="150" width="420" height="240" as="geometry" />
        </mxCell>
        <mxCell id="XTrONsWVgmrav_g4gLT--74" value="container for temperature" style="shape=rect;strokeColor=none;fillColor=#008cff;strokeWidth=1;dashed=0;rounded=1;arcSize=20;fontColor=#ffffff;fontSize=17;spacing=2;spacingTop=-2;align=left;autosize=1;spacingLeft=4;resizeWidth=0;resizeHeight=0;perimeter=none;" vertex="1" parent="XTrONsWVgmrav_g4gLT--73">
          <mxGeometry x="5" y="8" width="210" height="30" as="geometry" />
        </mxCell>
        <mxCell id="XTrONsWVgmrav_g4gLT--62" value="TEMPERATURE h1&amp;nbsp;" style="text;html=1;strokeColor=none;fillColor=none;align=center;verticalAlign=middle;whiteSpace=wrap;rounded=0;" vertex="1" parent="XTrONsWVgmrav_g4gLT--73">
          <mxGeometry x="121" y="50" width="180" height="40" as="geometry" />
        </mxCell>
        <mxCell id="XTrONsWVgmrav_g4gLT--63" value="&lt;table cellpadding=&quot;0&quot; cellspacing=&quot;0&quot; style=&quot;width:100%;height:100%;&quot;&gt;&lt;tr&gt;&lt;td style=&quot;width:85%&quot;&gt;100&lt;/td&gt;&lt;td style=&quot;width:15%&quot;&gt;&lt;/td&gt;&lt;/tr&gt;&lt;/table&gt;" style="strokeWidth=1;shadow=0;dashed=0;align=center;html=1;shape=mxgraph.mockup.forms.spinner;strokeColor=#999999;spinLayout=right;spinStyle=normal;adjStyle=triangle;fillColor=#aaddff;fontSize=17;fontColor=#666666;mainText=;html=1;overflow=fill;" vertex="1" parent="XTrONsWVgmrav_g4gLT--73">
          <mxGeometry x="100" y="130" width="150" height="60" as="geometry" />
        </mxCell>
        <mxCell id="XTrONsWVgmrav_g4gLT--75" value="emojis for types of weather&#xa;hot, hotter, hottest&#xa;maybe this is an app just for Texas&#xa;" style="shape=mxgraph.mockup.containers.marginRect;rectMarginTop=10;strokeColor=#666666;strokeWidth=1;dashed=0;rounded=1;arcSize=5;recursiveResize=0;" vertex="1" parent="1">
          <mxGeometry x="476" y="290" width="350" height="210" as="geometry" />
        </mxCell>
        <mxCell id="XTrONsWVgmrav_g4gLT--76" value="Container for weather garden" style="shape=rect;strokeColor=none;fillColor=#008cff;strokeWidth=1;dashed=0;rounded=1;arcSize=20;fontColor=#ffffff;fontSize=17;spacing=2;spacingTop=-2;align=left;autosize=1;spacingLeft=4;resizeWidth=0;resizeHeight=0;perimeter=none;" vertex="1" parent="XTrONsWVgmrav_g4gLT--75">
          <mxGeometry x="5" width="240" height="30" as="geometry" />
        </mxCell>
        <mxCell id="XTrONsWVgmrav_g4gLT--78" value="can the background change along with the temp? yellow, orange, then red.&lt;br&gt;" style="text;html=1;strokeColor=none;fillColor=none;align=center;verticalAlign=middle;whiteSpace=wrap;rounded=0;" vertex="1" parent="1">
          <mxGeometry x="570" y="40" width="260" height="80" as="geometry" />
        </mxCell>
        <mxCell id="XTrONsWVgmrav_g4gLT--82" value="&lt;meta charset=&quot;utf-8&quot;&gt;&lt;a href=&quot;https://developer.mozilla.org/en-US/docs/Web/HTML/Element/input&quot; style=&quot;box-sizing: border-box; color: rgb(0, 69, 139); text-decoration: underline; font-size: 16px; font-style: normal; font-weight: 400; letter-spacing: -0.0444444px; text-indent: 0px; text-transform: none; word-spacing: 0px; background-color: rgb(255, 255, 255);&quot;&gt;&lt;code style=&quot;box-sizing: border-box ; background-color: rgb(238 , 238 , 238) ; font-family: &amp;quot;consolas&amp;quot; , &amp;quot;liberation mono&amp;quot; , &amp;quot;courier&amp;quot; , monospace ; padding: 0px 3px ; overflow-wrap: break-word&quot;&gt;&amp;lt;input&amp;gt;&lt;/code&gt;&lt;/a&gt;&lt;span style=&quot;color: rgb(33, 33, 33); font-size: 16px; font-style: normal; font-weight: 400; letter-spacing: -0.0444444px; text-indent: 0px; text-transform: none; word-spacing: 0px; background-color: rgb(255, 255, 255); display: inline; float: none;&quot;&gt;&lt;span&gt;&amp;nbsp;&lt;/span&gt;elements of type&lt;span&gt;&amp;nbsp;&lt;/span&gt;&lt;/span&gt;&lt;strong style=&quot;box-sizing: border-box; color: rgb(33, 33, 33); font-size: 16px; font-style: normal; letter-spacing: -0.0444444px; text-indent: 0px; text-transform: none; word-spacing: 0px; background-color: rgb(255, 255, 255);&quot;&gt;&lt;code style=&quot;box-sizing: border-box ; background-color: rgb(238 , 238 , 238) ; font-family: &amp;quot;consolas&amp;quot; , &amp;quot;liberation mono&amp;quot; , &amp;quot;courier&amp;quot; , monospace ; padding: 0px 3px ; overflow-wrap: break-word&quot;&gt;reset&lt;/code&gt;&lt;/strong&gt;&lt;span style=&quot;color: rgb(33, 33, 33); font-size: 16px; font-style: normal; font-weight: 400; letter-spacing: -0.0444444px; text-indent: 0px; text-transform: none; word-spacing: 0px; background-color: rgb(255, 255, 255); display: inline; float: none;&quot;&gt;&lt;span&gt;&amp;nbsp;&lt;/span&gt;are rendered as buttons, with a default&lt;span&gt;&amp;nbsp;&lt;/span&gt;&lt;/span&gt;&lt;code style=&quot;box-sizing: border-box; background-color: rgb(238, 238, 238); font-family: consolas, &amp;quot;liberation mono&amp;quot;, courier, monospace; padding: 0px 3px; overflow-wrap: break-word; color: rgb(33, 33, 33); font-size: 16px; font-style: normal; font-weight: 400; letter-spacing: -0.0444444px; text-indent: 0px; text-transform: none; word-spacing: 0px;&quot;&gt;&lt;a href=&quot;https://developer.mozilla.org/en-US/docs/Web/API/Element/click_event&quot; title=&quot;/en-US/docs/Web/Events/click&quot; style=&quot;box-sizing: border-box ; color: rgb(0 , 69 , 139) ; text-decoration: underline&quot;&gt;click&lt;/a&gt;&lt;/code&gt;&lt;span style=&quot;color: rgb(33, 33, 33); font-size: 16px; font-style: normal; font-weight: 400; letter-spacing: -0.0444444px; text-indent: 0px; text-transform: none; word-spacing: 0px; background-color: rgb(255, 255, 255); display: inline; float: none;&quot;&gt;&lt;span&gt;&amp;nbsp;&lt;/span&gt;event handler that resets all of the inputs in the form to their initial values&lt;/span&gt;" style="text;html=1;strokeColor=none;fillColor=none;align=center;verticalAlign=middle;whiteSpace=wrap;rounded=0;" vertex="1" parent="1">
          <mxGeometry x="400" y="830" width="260" height="110" as="geometry" />
        </mxCell>
        <mxCell id="XTrONsWVgmrav_g4gLT--84" value="&lt;meta charset=&quot;utf-8&quot;&gt;&lt;a href=&quot;https://developer.mozilla.org/en-US/docs/Web/HTML/Element/input&quot; style=&quot;box-sizing: border-box; color: rgb(0, 69, 139); text-decoration: underline; font-size: 16px; font-style: normal; font-weight: 400; letter-spacing: -0.0444444px; text-indent: 0px; text-transform: none; word-spacing: 0px; background-color: rgb(255, 255, 255);&quot;&gt;&lt;code style=&quot;box-sizing: border-box ; background-color: rgb(238 , 238 , 238) ; font-family: &amp;quot;consolas&amp;quot; , &amp;quot;liberation mono&amp;quot; , &amp;quot;courier&amp;quot; , monospace ; padding: 0px 3px ; overflow-wrap: break-word&quot;&gt;&amp;lt;input&amp;gt;&lt;/code&gt;&lt;/a&gt;&lt;span style=&quot;color: rgb(33, 33, 33); font-size: 16px; font-style: normal; font-weight: 400; letter-spacing: -0.0444444px; text-indent: 0px; text-transform: none; word-spacing: 0px; background-color: rgb(255, 255, 255); display: inline; float: none;&quot;&gt;&lt;span&gt;&amp;nbsp;&lt;/span&gt;elements of type&lt;span&gt;&amp;nbsp;&lt;/span&gt;&lt;/span&gt;&lt;code style=&quot;box-sizing: border-box; background-color: rgb(238, 238, 238); font-family: consolas, &amp;quot;liberation mono&amp;quot;, courier, monospace; padding: 0px 3px; overflow-wrap: break-word; color: rgb(33, 33, 33); font-size: 16px; font-style: normal; font-weight: 400; letter-spacing: -0.0444444px; text-indent: 0px; text-transform: none; word-spacing: 0px;&quot;&gt;&lt;strong style=&quot;box-sizing: border-box&quot;&gt;search&lt;/strong&gt;&lt;/code&gt;&lt;span style=&quot;color: rgb(33, 33, 33); font-size: 16px; font-style: normal; font-weight: 400; letter-spacing: -0.0444444px; text-indent: 0px; text-transform: none; word-spacing: 0px; background-color: rgb(255, 255, 255); display: inline; float: none;&quot;&gt;&lt;span&gt;&amp;nbsp;&lt;/span&gt;are text fields designed for the user to enter search queries into. These are functionally identical to&lt;span&gt;&amp;nbsp;&lt;/span&gt;&lt;/span&gt;&lt;code style=&quot;box-sizing: border-box; background-color: rgb(238, 238, 238); font-family: consolas, &amp;quot;liberation mono&amp;quot;, courier, monospace; padding: 0px 3px; overflow-wrap: break-word; color: rgb(33, 33, 33); font-size: 16px; font-style: normal; font-weight: 400; letter-spacing: -0.0444444px; text-indent: 0px; text-transform: none; word-spacing: 0px;&quot;&gt;&lt;a href=&quot;https://developer.mozilla.org/en-US/docs/Web/HTML/Element/input/text&quot; style=&quot;box-sizing: border-box ; color: rgb(0 , 69 , 139) ; text-decoration: underline&quot;&gt;text&lt;/a&gt;&lt;/code&gt;&lt;span style=&quot;color: rgb(33, 33, 33); font-size: 16px; font-style: normal; font-weight: 400; letter-spacing: -0.0444444px; text-indent: 0px; text-transform: none; word-spacing: 0px; background-color: rgb(255, 255, 255); display: inline; float: none;&quot;&gt;&lt;span&gt;&amp;nbsp;&lt;/span&gt;inputs, but may be styled differently by the&lt;span&gt;&amp;nbsp;&lt;/span&gt;&lt;/span&gt;&lt;a href=&quot;https://developer.mozilla.org/en-US/docs/Glossary/User_agent&quot; style=&quot;box-sizing: border-box; color: rgb(0, 69, 139); text-decoration: underline; font-size: 16px; font-style: normal; font-weight: 400; letter-spacing: -0.0444444px; text-indent: 0px; text-transform: none; word-spacing: 0px; background-color: rgb(255, 255, 255);&quot;&gt;user agent&lt;/a&gt;&lt;span style=&quot;color: rgb(33, 33, 33); font-size: 16px; font-style: normal; font-weight: 400; letter-spacing: -0.0444444px; text-indent: 0px; text-transform: none; word-spacing: 0px; background-color: rgb(255, 255, 255); display: inline; float: none;&quot;&gt;.&lt;/span&gt;" style="text;html=1;strokeColor=none;fillColor=none;align=center;verticalAlign=middle;whiteSpace=wrap;rounded=0;" vertex="1" parent="1">
          <mxGeometry x="40" y="920" width="160" height="110" as="geometry" />
        </mxCell>
      </root>
    </mxGraphModel>
  </diagram>
</mxfile>
